<svg width="1530" height="861" viewBox="0 0 1530 861" fill="none" xmlns="http://www.w3.org/2000/svg">
<g clip-path="url(#clip0_189_139)">
<g filter="url(#filter0_f_189_139)">
<ellipse cx="594.637" cy="389.891" rx="650.046" ry="630.175" fill="url(#paint0_linear_189_139)"/>
</g>
<g filter="url(#filter1_f_189_139)">
<ellipse cx="673.666" cy="415.929" rx="468.691" ry="453.845" fill="#8A8A8A"/>
</g>
<g filter="url(#filter2_f_189_139)">
<ellipse cx="455.765" cy="870.002" rx="468.691" ry="453.845" fill="#4D4D4D"/>
</g>
<g filter="url(#filter3_f_189_139)">
<path d="M1344.9 1346.23C570.711 1141.78 1252.93 177.117 -31.029 121.512C-496.648 637.94 -225.554 1302.83 472.989 1346.23H1344.9Z" fill="black"/>
</g>
<g filter="url(#filter4_f_189_139)">
<path d="M787.132 101.213C774.895 94.9809 760.737 85.1387 746.613 82.8419C746.334 77.3067 743.791 72.4145 743.791 66.4139C743.791 60.3707 741.654 49.7917 744.503 44.6644C748.053 38.2746 749.535 28.1242 751.225 20.8587C754.751 5.69884 765.959 -9.79 776.534 -20.7421C790.496 -35.2033 806.009 -50.3432 824.936 -57.9139C864.21 -73.6233 905.79 -76.8221 947.445 -79.1888C989.074 -81.5541 1043.37 -84.6083 1068.06 -43.9943C1078.72 -26.4479 1081.53 -6.3912 1083.32 13.7407C1086.87 53.6048 1091.59 93.3353 1098.98 132.69C1109.22 187.232 1120.8 241.195 1139.55 293.557C1148.96 319.838 1162.33 346.362 1162.33 374.782C1162.33 397.699 1159.44 415.794 1146.99 435.443C1136.44 452.086 1122.32 469.59 1101.83 473.089C1082.05 476.465 1059.59 473.286 1044.49 459.644C1033.68 449.883 1030.2 432.879 1027.88 419.151C1024.51 399.249 1022.26 378.781 1016.96 359.28C1010.44 335.245 998.821 312.838 988.65 290.236C979.948 270.897 971.938 249.71 959.862 232.184C932.596 192.615 888.148 168.826 849.849 141.469L849.668 141.34C829.482 126.921 809.291 112.499 787.132 101.213Z" fill="#5A5A5A" fill-opacity="0.8"/>
</g>
<g filter="url(#filter5_f_189_139)">
<path d="M708.16 -9.05072C679.35 -20.9595 645.543 -40.6937 613.168 -43.357C611.543 -55.8344 604.91 -66.4504 603.833 -80.0312C602.748 -93.7083 596.014 -117.268 601.54 -129.383C608.426 -144.482 609.96 -167.721 612.48 -184.468C617.738 -219.411 640.323 -256.478 662.287 -283.163C691.289 -318.398 723.679 -355.447 765.151 -375.978C851.209 -418.581 944.733 -433.283 1038.57 -446.116C1132.36 -458.94 1254.69 -475.598 1317.84 -388.108C1345.12 -350.31 1355.07 -305.42 1362.74 -260.179C1377.94 -170.594 1395.74 -81.5211 1419.53 6.22264C1452.5 127.825 1488.39 247.879 1540.22 363.022C1566.24 420.811 1601.24 478.445 1606.35 542.764C1610.46 594.631 1607.17 636.104 1582.51 682.809C1561.63 722.37 1532.83 764.517 1487.07 776.117C1442.93 787.306 1391.52 784.142 1354.9 755.978C1328.69 735.825 1317.76 697.966 1310.04 667.312C1298.85 622.873 1290.08 576.955 1274.6 533.77C1255.51 480.543 1225.2 431.917 1198.13 382.586C1174.96 340.38 1153.04 293.866 1122.56 256.369C1053.76 171.708 948.899 125.844 857.317 70.803L856.884 70.543C808.615 41.5329 760.334 12.5159 708.16 -9.05072Z" fill="black"/>
</g>
<g filter="url(#filter6_f_189_139)">
<circle cx="68.1093" cy="-17.3589" r="182.726" fill="black" fill-opacity="0.8"/>
</g>
<g filter="url(#filter7_f_189_139)">
<ellipse cx="68.0767" cy="1008.75" rx="149.378" ry="404.965" transform="rotate(-39.4667 68.0767 1008.75)" fill="#464646" fill-opacity="0.7"/>
</g>
<g filter="url(#filter8_f_189_139)">
<circle cx="494.089" cy="445.165" r="318.171" fill="black" fill-opacity="0.8"/>
</g>
<g filter="url(#filter9_f_189_139)">
<path d="M767.879 -412.008C1208.98 -474.488 1770.65 -131.144 1529.15 686.925C1605.6 -1.40938 1019.37 -194.601 667.67 -216.782L767.879 -412.008Z" fill="#343434"/>
</g>
</g>
<defs>
<filter id="filter0_f_189_139" x="-512.223" y="-697.098" width="2213.72" height="2173.98" filterUnits="userSpaceOnUse" color-interpolation-filters="sRGB">
<feFlood flood-opacity="0" result="BackgroundImageFix"/>
<feBlend mode="normal" in="SourceGraphic" in2="BackgroundImageFix" result="shape"/>
<feGaussianBlur stdDeviation="228.407" result="effect1_foregroundBlur_189_139"/>
</filter>
<filter id="filter1_f_189_139" x="-251.839" y="-494.729" width="1851.01" height="1821.32" filterUnits="userSpaceOnUse" color-interpolation-filters="sRGB">
<feFlood flood-opacity="0" result="BackgroundImageFix"/>
<feBlend mode="normal" in="SourceGraphic" in2="BackgroundImageFix" result="shape"/>
<feGaussianBlur stdDeviation="228.407" result="effect1_foregroundBlur_189_139"/>
</filter>
<filter id="filter2_f_189_139" x="-355.536" y="73.5471" width="1622.6" height="1592.91" filterUnits="userSpaceOnUse" color-interpolation-filters="sRGB">
<feFlood flood-opacity="0" result="BackgroundImageFix"/>
<feBlend mode="normal" in="SourceGraphic" in2="BackgroundImageFix" result="shape"/>
<feGaussianBlur stdDeviation="171.305" result="effect1_foregroundBlur_189_139"/>
</filter>
<filter id="filter3_f_189_139" x="-719.438" y="-335.301" width="2521.16" height="2138.35" filterUnits="userSpaceOnUse" color-interpolation-filters="sRGB">
<feFlood flood-opacity="0" result="BackgroundImageFix"/>
<feBlend mode="normal" in="SourceGraphic" in2="BackgroundImageFix" result="shape"/>
<feGaussianBlur stdDeviation="228.407" result="effect1_foregroundBlur_189_139"/>
</filter>
<filter id="filter4_f_189_139" x="468.279" y="-354.487" width="968.138" height="1102.91" filterUnits="userSpaceOnUse" color-interpolation-filters="sRGB">
<feFlood flood-opacity="0" result="BackgroundImageFix"/>
<feBlend mode="normal" in="SourceGraphic" in2="BackgroundImageFix" result="shape"/>
<feGaussianBlur stdDeviation="137.044" result="effect1_foregroundBlur_189_139"/>
</filter>
<filter id="filter5_f_189_139" x="233.937" y="-821.922" width="1739.35" height="1969.51" filterUnits="userSpaceOnUse" color-interpolation-filters="sRGB">
<feFlood flood-opacity="0" result="BackgroundImageFix"/>
<feBlend mode="normal" in="SourceGraphic" in2="BackgroundImageFix" result="shape"/>
<feGaussianBlur stdDeviation="182.726" result="effect1_foregroundBlur_189_139"/>
</filter>
<filter id="filter6_f_189_139" x="-343.023" y="-428.491" width="822.265" height="822.265" filterUnits="userSpaceOnUse" color-interpolation-filters="sRGB">
<feFlood flood-opacity="0" result="BackgroundImageFix"/>
<feBlend mode="normal" in="SourceGraphic" in2="BackgroundImageFix" result="shape"/>
<feGaussianBlur stdDeviation="114.203" result="effect1_foregroundBlur_189_139"/>
</filter>
<filter id="filter7_f_189_139" x="-579.504" y="316.478" width="1295.16" height="1384.54" filterUnits="userSpaceOnUse" color-interpolation-filters="sRGB">
<feFlood flood-opacity="0" result="BackgroundImageFix"/>
<feBlend mode="normal" in="SourceGraphic" in2="BackgroundImageFix" result="shape"/>
<feGaussianBlur stdDeviation="182.726" result="effect1_foregroundBlur_189_139"/>
</filter>
<filter id="filter8_f_189_139" x="-52.4889" y="-101.413" width="1093.16" height="1093.16" filterUnits="userSpaceOnUse" color-interpolation-filters="sRGB">
<feFlood flood-opacity="0" result="BackgroundImageFix"/>
<feBlend mode="normal" in="SourceGraphic" in2="BackgroundImageFix" result="shape"/>
<feGaussianBlur stdDeviation="114.203" result="effect1_foregroundBlur_189_139"/>
</filter>
<filter id="filter9_f_189_139" x="439.263" y="-647.599" width="1376.39" height="1562.93" filterUnits="userSpaceOnUse" color-interpolation-filters="sRGB">
<feFlood flood-opacity="0" result="BackgroundImageFix"/>
<feBlend mode="normal" in="SourceGraphic" in2="BackgroundImageFix" result="shape"/>
<feGaussianBlur stdDeviation="114.203" result="effect1_foregroundBlur_189_139"/>
</filter>
<linearGradient id="paint0_linear_189_139" x1="976.027" y1="254.674" x2="683.437" y2="834.827" gradientUnits="userSpaceOnUse">
<stop stop-color="#575757"/>
<stop offset="1" stop-color="#1F1F1F" stop-opacity="0"/>
</linearGradient>
<clipPath id="clip0_189_139">
<rect width="1530" height="861" fill="white"/>
</clipPath>
</defs>
</svg>
