<svg width="44" height="42" viewBox="0 0 44 42" fill="none" xmlns="http://www.w3.org/2000/svg">
<g clip-path="url(#clip0_16_132)">
<path d="M7.02629 0.011254C7.02629 0.011254 19.0831 0 24.6351 0C25.5879 0 25.6329 0.0937835 25.2015 0.960343C23.8698 3.62755 22.5531 6.2985 21.1951 8.95445C20.9212 9.49089 20.9888 9.78725 21.4652 10.1699C28.5665 15.8719 27.82 26.3607 19.9009 30.836C12.477 35.03 3.44751 30.5847 1.7369 22.4743C1.34301 20.6136 1.44804 18.7717 1.87195 16.9035C3.65758 16.9673 5.44322 16.9073 7.22886 16.9411C6.45983 19.3119 6.49735 21.5702 7.71278 23.6935C9.19081 26.2706 12.3982 27.6774 15.3993 27.0622C18.2953 26.4695 20.5911 23.9823 21.0413 21.12C21.694 16.9523 18.6067 13.0247 14.3527 12.8258C13.6436 12.7921 13.6887 12.5107 13.9325 12.0043C14.8966 10.0161 15.8119 8.00536 16.7948 6.02465C17.1174 5.37192 16.9523 5.24062 16.2996 5.26688C15.3505 5.30439 7.04129 5.26688 7.04129 5.26688L7.03379 0.0187567L7.02629 0.011254Z" fill="white"/>
<path d="M27.4262 1.91693C27.4262 1.91693 24.639 7.2926 24.6465 7.3001C24.759 7.39764 24.8641 7.49517 24.9729 7.59646C27.3325 9.59592 29.1031 12.2481 30.0409 15.2304L30.0484 15.2529C30.1197 15.4818 30.1872 15.7069 30.2472 15.9394C30.281 16.0632 30.3073 16.1833 30.3373 16.3071C30.3673 16.4384 30.401 16.5659 30.4311 16.6972C30.4686 16.8698 30.4986 17.0423 30.5323 17.2149C30.5511 17.3124 30.5699 17.41 30.5849 17.5075C30.6074 17.6463 30.6261 17.7851 30.6449 17.9239C30.855 19.4657 30.855 21.0638 30.6036 22.6768C30.1497 25.5729 28.863 28.2964 26.9986 30.5472C26.9573 30.5997 26.9161 30.6522 26.8748 30.7047C26.841 30.7422 26.8073 30.776 26.7735 30.8135C24.4627 33.4882 21.3228 35.4577 17.7815 36.1854C17.005 36.343 16.221 36.4405 15.437 36.4855C15.3882 36.4855 15.3357 36.493 15.2869 36.493C15.2194 36.493 15.1556 36.4968 15.0881 36.5005C12.781 36.5943 10.6015 36.1854 8.75957 35.4802C6.71509 34.7337 4.82441 33.6007 3.23384 32.149C2.36353 33.6158 1.77082 34.6999 0.454102 36.9807C6.98518 42.4689 17.6427 44.217 26.2333 38.3199C30.4198 35.4464 33.3571 31.5788 34.8276 26.7208C36.9546 19.702 35.7955 13.1334 31.5377 6.89121L33.3346 6.90246C35.4654 6.91747 38.4327 6.94748 40.5597 6.93998L43.5457 1.89442C38.0238 1.89442 32.7306 1.88692 27.4262 1.91318V1.91693Z" fill="white"/>
<path d="M17.1923 19.9572C17.2074 18.3328 15.7706 16.8661 14.1613 16.8586C12.4807 16.851 11.1114 18.2053 11.1002 19.8859C11.0889 21.589 12.3944 22.9695 14.06 23.0107C15.7181 23.052 17.1811 21.6265 17.1961 19.9572H17.1923Z" fill="white"/>
</g>
<defs>
<clipPath id="clip0_16_132">
<rect width="43.0916" height="42" fill="white" transform="translate(0.454102)"/>
</clipPath>
</defs>
</svg>
