<svg width="28" height="42" viewBox="0 0 28 42" fill="none" xmlns="http://www.w3.org/2000/svg">
<g clip-path="url(#clip0_16_126)">
<path d="M23.8035 19.8822C27.0032 16.2561 27.8859 12.0991 26.1888 7.59895C23.8216 1.30021 16.3234 -1.02931 10.2016 0.411746C6.10475 1.37606 2.91594 4.17148 1.79535 8.29961C0.768448 12.063 1.07111 15.9961 0.995448 19.8497C0.941401 22.5801 0.955813 25.4153 1.12156 28.1818C1.2801 30.8508 1.45665 33.6282 2.6457 36.0733C3.73026 38.3053 5.64354 39.7933 7.83427 40.866C9.64307 41.7544 11.6536 42.0072 13.6462 42C15.473 41.9928 17.5196 41.9242 19.2671 41.3427C22.6685 40.2122 25.4646 37.0845 26.4951 33.6787C27.7094 29.6806 26.6284 25.2564 23.8576 22.1612C22.9676 21.168 22.964 20.8393 23.8108 19.8822H23.8035ZM17.2674 5.14663C19.8797 5.9412 21.7173 8.3574 22.1064 11.0264C22.2974 12.3411 22.1389 13.7099 21.5696 14.9162C21.2417 15.6096 19.9409 17.1699 18.1069 17.4552C17.3394 17.5744 16.644 16.9676 16.626 16.1875L16.3738 5.85452C16.3378 5.12135 16.4459 4.8902 17.271 5.13941L17.2674 5.14663ZM5.76965 25.8595C5.78767 21.1318 5.72281 16.4042 5.80569 11.6801C5.85973 8.68245 7.82346 6.05316 10.6772 5.15747C11.4158 4.92632 11.632 4.96966 11.6104 5.67393C11.4591 10.3908 11.6644 15.104 11.5852 19.8208C11.5347 22.9124 9.32599 25.65 6.42904 26.3471C5.92459 26.4699 5.76605 26.4157 5.76965 25.8595ZM21.8614 37.7599C21.8867 37.7058 21.9083 37.648 21.9335 37.5938C21.9083 37.6516 21.8867 37.7058 21.8614 37.7599ZM21.7209 32.6711C19.6239 37.4457 12.032 38.8687 8.12973 35.5026C7.58565 35.0331 6.89024 34.2205 6.42904 33.3501C5.92459 32.393 6.48308 31.2264 7.53161 30.9592C11.6536 29.9118 14.338 27.315 15.7793 23.288C16.0675 22.479 17.08 22.2262 17.7034 22.8149C18.9681 24.0103 20.24 25.1552 21.184 26.5999C22.51 28.626 22.5352 30.8147 21.7173 32.6747L21.7209 32.6711Z" fill="white"/>
</g>
<defs>
<clipPath id="clip0_16_126">
<rect width="26.069" height="42" fill="white" transform="translate(0.96582)"/>
</clipPath>
</defs>
</svg>
