<svg width="42" height="42" viewBox="0 0 42 42" fill="none" xmlns="http://www.w3.org/2000/svg">
<path d="M7.71455 25.2383C6.50664 24.0304 4.54227 24.0518 3.35877 25.2841L1.52555 27.1966C-0.43882 29.219 -0.423569 32.4766 1.55606 34.4593C2.78531 35.6886 4.53007 36.201 6.20772 35.8533C5.85999 37.5309 6.37243 39.2787 7.60169 40.5049C9.58436 42.4876 12.839 42.4998 14.8644 40.5324L26.9831 28.435C27.0868 28.3313 27.096 28.1697 27.0075 28.0537C26.8763 27.8829 26.736 27.7243 26.5927 27.5779L26.5835 27.5688C25.5495 26.5347 24.1555 25.9399 22.7554 25.9399C21.4896 25.9399 20.303 26.4249 19.4184 27.3125L11.5701 35.1609C10.2188 36.5121 8.15074 36.564 6.84217 35.2859C6.82387 35.2585 6.79947 35.2341 6.76897 35.2127C5.50005 33.9011 5.55496 31.8391 6.90318 30.494L7.86096 29.3898C8.91026 28.1819 8.8462 26.3669 7.71455 25.2353V25.2383ZM33.7303 17.3137C34.926 18.5095 36.8629 18.4973 38.0464 17.2893L40.4775 14.8034C42.4419 12.781 42.4266 9.52336 40.447 7.54068C39.2177 6.31143 37.473 5.79898 35.7953 6.14671C36.1431 4.46906 35.6306 2.72126 34.4014 1.49505C32.4187 -0.487624 29.164 -0.499826 27.1387 1.4676L15.0199 13.565C14.9162 13.6687 14.9071 13.8303 14.9955 13.9463C15.1267 14.1171 15.267 14.2757 15.4104 14.4221L15.4195 14.4312C16.4536 15.4653 17.8475 16.0601 19.2476 16.0601C20.5135 16.0601 21.7 15.5751 22.5846 14.6875L30.433 6.83912C31.7842 5.48785 33.8523 5.436 35.1609 6.71406C35.1792 6.74151 35.2036 6.76592 35.2341 6.78727C36.503 8.09888 36.4481 10.1609 35.0999 11.506L33.6266 13.1349C32.5437 14.3336 32.5895 16.1729 33.7303 17.3137ZM25.2383 34.2702C24.0304 35.4781 24.0518 37.4425 25.2841 38.626L27.1966 40.4592C29.219 42.4236 32.4766 42.4083 34.4593 40.4287C35.6886 39.1994 36.201 37.4547 35.8533 35.777C37.5309 36.1248 39.2787 35.6123 40.5049 34.3831C42.4876 32.4004 42.4998 29.1457 40.5324 27.1204L28.435 15.0016C28.3313 14.8979 28.1697 14.8888 28.0537 14.9772C27.8829 15.1084 27.7243 15.2487 27.5779 15.3921L27.5688 15.4012C26.5347 16.4353 25.9399 17.8292 25.9399 19.2293C25.9399 20.4952 26.4249 21.6817 27.3125 22.5663L35.1609 30.4147C36.5121 31.7659 36.564 33.834 35.2859 35.1426C35.2585 35.1609 35.2341 35.1853 35.2127 35.2158C33.9011 36.4847 31.8391 36.4298 30.494 35.0816L29.3898 34.1238C28.1819 33.0745 26.3669 33.1385 25.2353 34.2702H25.2383ZM17.3137 8.25445C18.5095 7.05874 18.4973 5.12182 17.2893 3.93832L14.8034 1.50725C12.781 -0.457122 9.52336 -0.44187 7.54068 1.53775C6.31143 2.76701 5.79898 4.51177 6.14671 6.18942C4.46906 5.84168 2.72126 6.35413 1.49505 7.58339C-0.487624 9.56606 -0.499826 12.8207 1.4676 14.8461L13.565 26.9648C13.6687 27.0685 13.8303 27.0777 13.9463 26.9892C14.1171 26.858 14.2757 26.7177 14.4221 26.5744L14.4312 26.5652C15.4653 25.5312 16.0601 24.1372 16.0601 22.7371C16.0601 21.4713 15.5751 20.2847 14.6875 19.4001L6.83912 11.5518C5.48785 10.2005 5.436 8.13244 6.71406 6.82387C6.74151 6.80557 6.76592 6.78117 6.78727 6.75066C8.09888 5.48175 10.1609 5.53666 11.506 6.88488L13.1349 8.35816C14.3336 9.441 16.1729 9.39525 17.3137 8.25445Z" fill="white"/>
</svg>
