<svg width="108" height="256" viewBox="0 0 108 256" fill="none" xmlns="http://www.w3.org/2000/svg">
<mask id="path-1-inside-1_16_50" fill="white">
<path fill-rule="evenodd" clip-rule="evenodd" d="M70.8644 102.893C68.512 94.3482 73.8398 85.7072 81.0163 80.5064C92.1669 72.4256 99.4198 59.2958 99.4198 44.472C99.4198 19.9108 79.509 0 54.9478 0C30.3866 0 10.4758 19.9108 10.4758 44.472C10.4758 58.8738 17.3215 71.6767 27.9365 79.8041C34.7687 85.0352 39.7342 93.454 37.4503 101.75L0.57378 235.704C-2.23059 245.891 5.43409 255.951 15.9999 255.951H92.0001C102.566 255.951 110.231 245.891 107.426 235.704L70.8644 102.893Z"/>
</mask>
<path fill-rule="evenodd" clip-rule="evenodd" d="M70.8644 102.893C68.512 94.3482 73.8398 85.7072 81.0163 80.5064C92.1669 72.4256 99.4198 59.2958 99.4198 44.472C99.4198 19.9108 79.509 0 54.9478 0C30.3866 0 10.4758 19.9108 10.4758 44.472C10.4758 58.8738 17.3215 71.6767 27.9365 79.8041C34.7687 85.0352 39.7342 93.454 37.4503 101.75L0.57378 235.704C-2.23059 245.891 5.43409 255.951 15.9999 255.951H92.0001C102.566 255.951 110.231 245.891 107.426 235.704L70.8644 102.893Z" fill="#D9D9D9"/>
<path d="M27.9365 79.8041L28.5996 78.938L27.9365 79.8041ZM37.4503 101.75L36.3986 101.461L37.4503 101.75ZM81.0163 80.5064L80.3762 79.6231L81.0163 80.5064ZM98.329 44.472C98.329 58.9314 91.2559 71.7387 80.3762 79.6231L81.6564 81.3897C93.078 73.1125 100.511 59.6602 100.511 44.472H98.329ZM54.9478 1.09081C78.9065 1.09081 98.329 20.5132 98.329 44.472H100.511C100.511 19.3084 80.1114 -1.09081 54.9478 -1.09081V1.09081ZM11.5666 44.472C11.5666 20.5132 30.989 1.09081 54.9478 1.09081V-1.09081C29.7841 -1.09081 9.38495 19.3084 9.38495 44.472H11.5666ZM28.5996 78.938C18.2426 71.0081 11.5666 58.5199 11.5666 44.472H9.38495C9.38495 59.2277 16.4004 72.3452 27.2734 80.6702L28.5996 78.938ZM1.62546 235.993L38.5019 102.04L36.3986 101.461L-0.477903 235.414L1.62546 235.993ZM92.0001 254.86H15.9999V257.041H92.0001V254.86ZM69.8127 103.183L106.375 235.993L108.478 235.414L71.9161 102.604L69.8127 103.183ZM-0.477903 235.414C-3.47346 246.296 4.71376 257.041 15.9999 257.041V254.86C6.15442 254.86 -0.987716 245.486 1.62546 235.993L-0.477903 235.414ZM27.2734 80.6702C33.9353 85.7709 38.5136 93.778 36.3986 101.461L38.5019 102.04C40.9548 93.1299 35.6021 84.2995 28.5996 78.938L27.2734 80.6702ZM92.0001 257.041C103.286 257.041 111.473 246.296 108.478 235.414L106.375 235.993C108.988 245.486 101.846 254.86 92.0001 254.86V257.041ZM80.3762 79.6231C73.0266 84.9494 67.2862 94.0053 69.8127 103.183L71.9161 102.604C69.7378 94.691 74.6529 86.465 81.6564 81.3897L80.3762 79.6231Z" fill="black" mask="url(#path-1-inside-1_16_50)"/>
</svg>
