<svg width="28" height="28" viewBox="0 0 28 28" fill="none" xmlns="http://www.w3.org/2000/svg">
<path d="M1.92485 12.0539C9.44103 8.10251 14.453 5.4975 16.9607 4.23888C24.1209 0.645279 25.6087 0.0210326 26.5784 0.000199838C26.7917 -0.00411398 27.2686 0.0596673 27.5775 0.362125C27.8383 0.617515 27.9101 0.96251 27.9444 1.20465C27.9788 1.44678 28.0215 1.99838 27.9876 2.42938C27.5995 7.34875 25.9206 19.2868 25.0665 24.7965C24.7051 27.1279 23.9934 27.9096 23.3045 27.9861C21.8072 28.1524 20.6703 26.7922 19.2201 25.6451C16.9509 23.8502 15.669 22.7329 13.4663 20.9814C10.9207 18.9572 12.5709 17.8447 14.0216 16.0266C14.4013 15.5508 20.9982 8.31032 21.1259 7.6535C21.1418 7.57135 21.1567 7.26515 21.0059 7.10346C20.8552 6.94178 20.6327 6.99707 20.4721 7.04104C20.2445 7.10337 16.6194 9.99459 9.59681 15.7147C8.56784 16.5673 7.63583 16.9827 6.80078 16.9609C5.8802 16.9369 4.10939 16.3329 2.79297 15.8165C1.17832 15.1832 -0.104962 14.8483 0.00678326 13.7728C0.0649871 13.2125 0.704344 12.6396 1.92485 12.0539Z" fill="white"/>
</svg>
