<svg width="33" height="26" viewBox="0 0 33 26" fill="none" xmlns="http://www.w3.org/2000/svg">
<path d="M10.221 26C22.4857 26 29.1928 15.998 29.1928 7.32513C29.1928 7.04096 29.1869 6.75825 29.1736 6.47662C30.4755 5.55025 31.6073 4.39392 32.5 3.07821C31.3053 3.60071 30.0197 3.95256 28.6709 4.1112C30.0474 3.29871 31.1046 2.01285 31.6032 0.480289C30.3147 1.23238 28.8879 1.77889 27.3694 2.07361C26.1521 0.797934 24.4193 0 22.5019 0C18.8192 0 15.8329 2.93959 15.8329 6.56286C15.8329 7.07807 15.8916 7.57874 16.0055 8.05939C10.4642 7.78541 5.55017 5.17329 2.26184 1.20218C1.68852 2.17185 1.35843 3.29907 1.35843 4.50089C1.35843 6.77789 2.53574 8.78819 4.32592 9.96454C3.23215 9.93143 2.20454 9.63525 1.30594 9.14332C1.30447 9.17061 1.30447 9.19826 1.30447 9.227C1.30447 12.406 3.60327 15.06 6.65392 15.6614C6.09391 15.8117 5.5047 15.8925 4.89627 15.8925C4.46675 15.8925 4.04905 15.8503 3.64282 15.7742C4.49152 18.3816 6.95333 20.2795 9.87202 20.333C7.58948 22.0937 4.71441 23.1426 1.59057 23.1426C1.05274 23.1426 0.521934 23.1124 0 23.0517C2.95085 24.9132 6.45468 26 10.221 26Z" fill="white"/>
</svg>
